<svg xmlns="http://www.w3.org/2000/svg" viewBox="0 0 144 144">

  <!-- Pins -->
  <rect x="36" y="0" width="12" height="12" fill="#34495e"/>
  <rect x="60" y="0" width="12" height="12" fill="#34495e"/>
  <rect x="84" y="0" width="12" height="12" fill="#34495e"/>
  <rect x="108" y="0" width="12" height="12" fill="#34495e"/>

  <rect x="36" y="132" width="12" height="12" fill="#34495e"/>
  <rect x="60" y="132" width="12" height="12" fill="#34495e"/>
  <rect x="84" y="132" width="12" height="12" fill="#34495e"/>
  <rect x="108" y="132" width="12" height="12" fill="#34495e"/>

  <rect x="0" y="36" width="12" height="12" fill="#34495e"/>
  <rect x="0" y="60" width="12" height="12" fill="#34495e"/>
  <rect x="0" y="84" width="12" height="12" fill="#34495e"/>
  <rect x="0" y="108" width="12" height="12" fill="#34495e"/>

  <rect x="132" y="36" width="12" height="12" fill="#34495e"/>
  <rect x="132" y="60" width="12" height="12" fill="#34495e"/>
  <rect x="132" y="84" width="12" height="12" fill="#34495e"/>
  <rect x="132" y="108" width="12" height="12" fill="#34495e"/>

  <!-- Chip body -->
  <rect x="24" y="24" width="96" height="96" fill="#16a085"/>

  <!-- Spark accent -->
  <rect x="30" y="30" width="8" height="8" fill="#f1c40f"/>
  <rect x="34" y="38" width="8" height="8" fill="#f1c40f"/>
  <rect x="30" y="46" width="8" height="8" fill="#f1c40f"/>

  <!-- Eyes -->
  <rect x="48" y="54" width="12" height="12" fill="#1e272e"/>
  <rect x="84" y="54" width="12" height="12" fill="#1e272e"/>
  <rect x="51" y="57" width="4" height="4" fill="#ffffff" opacity="0.5"/>
  <rect x="87" y="57" width="4" height="4" fill="#ffffff" opacity="0.5"/>

  <!-- Smile -->
  <rect x="54" y="90" width="36" height="8" fill="#1e272e"/>

</svg>
