<svg xmlns="http://www.w3.org/2000/svg" viewBox="0 0 144 144">

  <!-- Tail -->
  <rect x="0" y="72" width="12" height="12" fill="#9b59b6"/>
  <rect x="0" y="84" width="12" height="12" fill="#ff6b9d"/>

  <!-- Rainbow mane -->
  <rect x="36" y="12" width="24" height="12" fill="#e74c3c"/>
  <rect x="24" y="24" width="48" height="12" fill="#e67e22"/>
  <rect x="12" y="36" width="60" height="12" fill="#f9ca24"/>
  <rect x="12" y="48" width="60" height="12" fill="#2ecc71"/>
  <rect x="12" y="60" width="48" height="12" fill="#3498db"/>
  <rect x="12" y="72" width="48" height="12" fill="#9b59b6"/>

  <!-- Horn -->
  <rect x="108" y="0" width="12" height="12" fill="#f1c40f"/>
  <rect x="96" y="12" width="24" height="12" fill="#f1c40f"/>

  <!-- Ear -->
  <rect x="84" y="12" width="12" height="12" fill="#e0c3fc"/>

  <!-- Head, neck & body -->
  <rect x="84" y="24" width="48" height="12" fill="#e0c3fc"/>
  <rect x="72" y="36" width="72" height="12" fill="#e0c3fc"/>
  <rect x="72" y="48" width="72" height="12" fill="#e0c3fc"/>
  <rect x="60" y="60" width="72" height="12" fill="#e0c3fc"/>
  <rect x="60" y="72" width="72" height="12" fill="#e0c3fc"/>
  <rect x="60" y="84" width="72" height="12" fill="#e0c3fc"/>
  <rect x="60" y="96" width="72" height="12" fill="#e0c3fc"/>

  <!-- Legs -->
  <rect x="96" y="108" width="24" height="24" fill="#e0c3fc"/>
  <rect x="60" y="108" width="24" height="24" fill="#e0c3fc"/>

  <!-- Hooves -->
  <rect x="96" y="132" width="24" height="12" fill="#1e272e"/>
  <rect x="60" y="132" width="24" height="12" fill="#1e272e"/>

  <!-- Nose -->
  <rect x="132" y="48" width="12" height="12" fill="#ff9ff3"/>

  <!-- Eye -->
  <rect x="108" y="36" width="12" height="12" fill="#1e272e"/>
  <rect x="111" y="39" width="4" height="4" fill="#ffffff" opacity="0.5"/>

</svg>
