<svg xmlns="http://www.w3.org/2000/svg" viewBox="0 0 144 144">

  <!-- Pommel -->
  <rect x="60" y="12" width="24" height="12" fill="#7f8c8d"/>
  <rect x="63" y="15" width="4" height="4" fill="#ffffff" opacity="0.5"/>

  <!-- Grip -->
  <rect x="60" y="24" width="24" height="12" fill="#6b4423"/>

  <!-- Crossguard -->
  <rect x="36" y="36" width="72" height="12" fill="#f1c40f"/>
  <rect x="42" y="36" width="12" height="12" fill="#d4ac0d"/>

  <!-- Flame -->
  <rect x="48" y="48" width="48" height="12" fill="#c0392b"/>
  <rect x="60" y="48" width="24" height="12" fill="#e67e22"/>

  <rect x="48" y="60" width="48" height="12" fill="#c0392b"/>
  <rect x="60" y="60" width="24" height="12" fill="#e67e22"/>

  <rect x="36" y="72" width="72" height="12" fill="#e74c3c"/>
  <rect x="48" y="72" width="48" height="12" fill="#e67e22"/>
  <rect x="60" y="72" width="24" height="12" fill="#f1c40f"/>

  <rect x="36" y="84" width="72" height="12" fill="#e74c3c"/>
  <rect x="48" y="84" width="48" height="12" fill="#e67e22"/>
  <rect x="60" y="84" width="24" height="12" fill="#f1c40f"/>

  <rect x="24" y="96" width="96" height="12" fill="#e74c3c"/>
  <rect x="36" y="96" width="72" height="12" fill="#e67e22"/>
  <rect x="48" y="96" width="48" height="12" fill="#f1c40f"/>

  <!-- Embers / mound -->
  <rect x="24" y="108" width="96" height="12" fill="#2c3e50"/>
  <rect x="36" y="108" width="12" height="12" fill="#e67e22"/>
  <rect x="96" y="108" width="12" height="12" fill="#e67e22"/>

  <rect x="12" y="120" width="120" height="12" fill="#1e272e"/>

</svg>
